<?xml version="1.0" encoding="utf-8"?>
<!-- Generator: Adobe Illustrator 21.1.0, SVG Export Plug-In . SVG Version: 6.00 Build 0)  -->
<svg version="1.1" id="Layer_1" xmlns="http://www.w3.org/2000/svg" xmlns:xlink="http://www.w3.org/1999/xlink" x="0px" y="0px"
	 viewBox="0 0 108 153" style="enable-background:new 0 0 108 153;" xml:space="preserve">
<style type="text/css">
	.st0{fill:#B3B3B3;}
	.st1{fill:#E6FDFF;}
	.st2{fill:none;stroke:#000000;stroke-width:4;stroke-miterlimit:10;}
</style>
<g>
	<g id="XMLID_1_">
		<g>
			<path class="st0" d="M23.6,87.2c0.5,0.4,1,0.8,1.4,1.2c0.2,0.2,0.4,0.4,0.6,0.5c0.3,0.2,0.5,0.4,0.8,0.6v9l-0.1,0l-5.6-14.1
				c0.3,0.3,0.6,0.6,0.9,0.9c0,0,0,0,0,0c0.4,0.4,0.8,0.8,1.2,1.2C23.1,86.7,23.4,86.9,23.6,87.2z"/>
			<path class="st0" d="M53.5,26.5c-14.9,0-27,12.1-27,27v-36c7.5-5.6,16.9-9,27-9c24.8,0,45,20.1,45,45h-9h-9
				C80.5,38.6,68.4,26.5,53.5,26.5z"/>
			<path class="st1" d="M26.5,53.5c0,14.9,12.1,27,27,27s27-12.1,27-27h9c0,19.9-16.1,36-36,36c-10.8,0-20.4-4.7-27-12.2V53.5z"/>
			<path class="st1" d="M26.5,77.3c6.6,7.5,16.3,12.2,27,12.2c19.9,0,36-16.1,36-36h9c0,24.8-20.2,45-45,45c-10.1,0-19.5-3.3-27-9v0
				V77.3z"/>
			<path class="st1" d="M26.5,17.5v36h-9v-27C20.1,23.1,23.1,20.1,26.5,17.5z"/>
			<path class="st1" d="M17.5,53.5c0,9.1,3.4,17.5,9,23.8v12.2c-0.3-0.2-0.5-0.4-0.8-0.6c-0.2-0.2-0.4-0.3-0.6-0.5
				c-0.5-0.4-1-0.8-1.4-1.2c-0.2-0.2-0.5-0.4-0.7-0.6c-0.4-0.4-0.8-0.8-1.2-1.2c0,0,0,0,0,0c-0.3-0.3-0.6-0.6-0.9-0.9c0,0,0,0,0,0
				L8.5,53.5c0-10.1,3.4-19.5,9-27V53.5z"/>
			<path class="st0" d="M26.5,89.5L26.5,89.5c-0.3-0.2-0.5-0.4-0.8-0.6C26,89.1,26.2,89.3,26.5,89.5z"/>
			<path class="st0" d="M25.7,88.9c-0.2-0.2-0.4-0.3-0.6-0.5C25.3,88.6,25.5,88.7,25.7,88.9z"/>
			<path class="st0" d="M22.9,86.5c-0.4-0.4-0.8-0.8-1.2-1.2C22.1,85.7,22.5,86.1,22.9,86.5z"/>
			<path class="st1" d="M26.5,77.3c-5.6-6.3-9-14.7-9-23.8h9V77.3z"/>
			<path class="st0" d="M12.5,72c0.2,0.3,0.3,0.7,0.5,1C12.8,72.7,12.6,72.3,12.5,72z"/>
			<path class="st1" d="M9.5,62.9c0-0.2-0.1-0.4-0.1-0.6s-0.1-0.4-0.1-0.6c-0.1-0.4-0.1-0.8-0.2-1.2c0,0,0,0,0-0.1
				c-0.1-0.4-0.1-0.9-0.2-1.3c-0.1-0.4-0.1-0.7-0.1-1.1c-0.1-0.4-0.1-0.9-0.1-1.3c0-0.5-0.1-1.1-0.1-1.6c0-0.5,0-0.9,0-1.4
				l12.3,30.9c-0.1-0.1-0.2-0.2-0.3-0.3c-0.2-0.2-0.4-0.4-0.6-0.7c-0.1-0.1-0.3-0.3-0.4-0.4c-0.1-0.1-0.3-0.3-0.4-0.4
				c-2.5-2.9-4.6-6.1-6.2-9.6c-0.2-0.3-0.3-0.7-0.5-1c-0.2-0.5-0.5-1.1-0.7-1.6c-0.1-0.3-0.2-0.5-0.3-0.8c-0.3-0.7-0.6-1.5-0.8-2.2
				c-0.1-0.3-0.2-0.5-0.2-0.8c-0.2-0.8-0.5-1.6-0.7-2.4C9.7,63.8,9.6,63.3,9.5,62.9C9.5,62.9,9.5,62.9,9.5,62.9z"/>
			<path class="st0" d="M9.4,62.2c0,0.2,0.1,0.4,0.1,0.6c0,0,0,0,0,0.1c0.1,0.4,0.2,0.8,0.3,1.3c0.2,0.8,0.4,1.6,0.7,2.4
				c0.1,0.3,0.2,0.5,0.2,0.8c0.2,0.8,0.5,1.5,0.8,2.2c0.1,0.3,0.2,0.6,0.3,0.8c0.2,0.5,0.4,1.1,0.7,1.6c0.1,0.3,0.3,0.7,0.5,1
				c1.7,3.5,3.8,6.7,6.2,9.6c0.1,0.2,0.3,0.3,0.4,0.4c0.1,0.1,0.3,0.3,0.4,0.4c0.2,0.2,0.4,0.4,0.6,0.7c0.1,0.1,0.2,0.2,0.3,0.3
				c0,0,0,0,0,0l5.6,14.1l0.1,0.2V144h-18V53.5c0,0.5,0,0.9,0,1.4c0,0.5,0,1.1,0.1,1.6c0,0.4,0.1,0.9,0.1,1.3c0,0.4,0.1,0.8,0.1,1.1
				c0.1,0.5,0.1,0.9,0.2,1.3c0,0,0,0,0,0.1c0.1,0.4,0.1,0.8,0.2,1.2C9.3,61.8,9.3,62,9.4,62.2z"/>
		</g>
		<g>
			<polyline class="st2" points="26.5,98.8 26.5,144 8.5,144 8.5,53.5 			"/>
			<path class="st2" d="M12.9,73c-0.2-0.3-0.3-0.7-0.5-1"/>
			<path class="st2" d="M26.5,89.5c-0.3-0.2-0.5-0.4-0.8-0.6c-0.2-0.2-0.4-0.3-0.6-0.5"/>
			<path class="st2" d="M26.5,89.5c7.5,5.6,16.9,9,27,9c24.8,0,45-20.2,45-45s-20.2-45-45-45c-10.1,0-19.5,3.4-27,9
				c-3.4,2.6-6.4,5.6-9,9c-5.6,7.5-9,16.9-9,27c0,0.5,0,0.9,0,1.4c0,0.5,0,1.1,0.1,1.6c0,0.4,0.1,0.9,0.1,1.3c0,0.4,0.1,0.8,0.1,1.1
				c0.1,0.5,0.1,0.9,0.2,1.3c0,0,0,0,0,0.1c0.1,0.4,0.1,0.8,0.2,1.2c0,0.2,0.1,0.4,0.1,0.6s0.1,0.4,0.1,0.6c0,0,0,0,0,0.1
				c0.1,0.4,0.2,0.8,0.3,1.3c0.2,0.8,0.4,1.6,0.7,2.4c0.1,0.3,0.2,0.5,0.2,0.8c0.2,0.8,0.5,1.5,0.8,2.2c0.1,0.3,0.2,0.6,0.3,0.8
				c0.2,0.5,0.4,1.1,0.7,1.6c0.2,0.3,0.3,0.7,0.5,1c1.7,3.5,3.8,6.7,6.2,9.6c0.1,0.2,0.3,0.3,0.4,0.4c0.1,0.1,0.3,0.3,0.4,0.4
				c0.2,0.2,0.4,0.4,0.6,0.7c0.1,0.1,0.2,0.2,0.3,0.3c0,0,0,0,0,0c0.3,0.3,0.6,0.6,0.9,0.9c0,0,0,0,0,0c0.4,0.4,0.8,0.8,1.2,1.2
				c0.2,0.2,0.5,0.4,0.7,0.6c0.5,0.4,1,0.8,1.4,1.2c0.2,0.2,0.4,0.4,0.6,0.5C26,89.1,26.2,89.3,26.5,89.5"/>
			<path class="st2" d="M89.5,53.5c0,19.9-16.1,36-36,36c-10.8,0-20.4-4.7-27-12.2c-5.6-6.3-9-14.7-9-23.8"/>
			<circle class="st2" cx="53.5" cy="53.5" r="27"/>
			<line class="st2" x1="17.5" y1="26.5" x2="17.5" y2="53.5"/>
			<polyline class="st2" points="26.5,98.5 26.5,89.5 26.5,89.5 			"/>
			<line class="st2" x1="26.5" y1="17.5" x2="26.5" y2="53.5"/>
		</g>
	</g>
</g>
<line class="st2" x1="80.5" y1="53.5" x2="98.5" y2="53.5"/>
</svg>
